<?xml version="1.0" standalone="no"?>
<!DOCTYPE svg PUBLIC "-//W3C//DTD SVG 20010904//EN"
 "http://www.w3.org/TR/2001/REC-SVG-20010904/DTD/svg10.dtd">
<svg version="1.0" xmlns="http://www.w3.org/2000/svg"
 width="512.000000pt" height="512.000000pt" viewBox="0 0 512.000000 512.000000"
 preserveAspectRatio="xMidYMid meet">
<metadata>
Created by potrace 1.16, written by Peter Selinger 2001-2019
</metadata>
<g transform="translate(0.000000,512.000000) scale(0.100000,-0.100000)"
fill="#000000" stroke="none">
<path d="M1033 4629 c-6 -6 -66 -10 -157 -10 -132 1 -146 -1 -147 -17 0 -10
-3 -12 -6 -4 -6 14 -73 16 -73 2 0 -7 -6 -7 -19 0 -31 16 -59 12 -66 -10 -3
-11 -11 -20 -16 -20 -5 0 -13 -8 -16 -17 -4 -10 -19 -31 -35 -46 -15 -16 -28
-33 -28 -38 0 -6 -7 -18 -17 -27 -15 -16 -16 -15 -11 9 4 23 2 25 -20 21 -18
-3 -20 -7 -10 -13 9 -6 5 -9 -14 -9 -14 0 -29 6 -31 13 -4 10 -6 10 -6 0 -1
-7 -6 -13 -12 -13 -6 0 -18 -7 -27 -16 -15 -15 -14 -16 8 -9 14 4 27 11 30 16
3 4 12 4 20 -1 13 -8 12 -10 -2 -10 -9 0 -23 -6 -30 -13 -7 -7 -21 -16 -31
-20 -9 -3 -17 -13 -17 -22 0 -8 -5 -15 -11 -15 -5 0 -7 -5 -4 -10 3 -6 -1 -13
-9 -16 -10 -4 -18 -25 -22 -55 -4 -27 -10 -49 -15 -49 -5 0 -9 -6 -9 -13 0 -7
-8 -20 -17 -29 -51 -49 -94 -112 -71 -103 7 3 25 23 38 45 14 22 27 40 30 40
3 0 16 18 30 40 14 22 28 40 32 40 4 0 26 21 50 47 53 57 98 98 107 98 4 0 15
8 25 18 10 9 22 17 27 17 6 0 26 11 46 25 20 13 40 22 45 19 4 -3 11 2 14 11
5 13 9 13 22 3 13 -11 15 -10 10 3 -5 12 -1 15 16 12 13 -3 38 5 57 16 19 12
45 21 59 21 15 0 31 5 38 12 6 6 15 8 19 4 4 -4 1 -11 -7 -16 -13 -8 -12 -10
2 -10 9 0 19 6 22 13 4 9 7 9 12 0 3 -8 15 -9 35 -3 17 5 29 5 29 -1 0 -5 -11
-9 -25 -9 -35 0 -31 -19 5 -26 32 -7 36 -14 19 -31 -8 -8 -2 -13 21 -18 23 -5
29 -10 19 -15 -7 -5 -16 -7 -20 -5 -11 7 -134 -17 -141 -28 -3 -5 -27 -10 -52
-11 -25 -1 -41 -2 -36 -4 17 -6 11 -22 -8 -22 -9 0 -34 -9 -55 -20 -20 -11
-41 -20 -47 -20 -5 0 -18 -8 -28 -17 -11 -10 -28 -25 -38 -33 -87 -68 -127
-103 -180 -158 -46 -46 -63 -58 -68 -47 -8 22 -34 18 -48 -7 -16 -30 -19 -45
-21 -90 0 -27 -4 -35 -15 -30 -12 4 -13 1 -5 -13 10 -17 -3 -59 -24 -74 -15
-11 -43 -69 -43 -89 0 -12 -4 -23 -9 -26 -5 -3 -12 -23 -16 -43 -4 -21 -10
-42 -13 -48 -4 -5 -13 -35 -21 -65 -17 -65 -27 -495 -12 -514 5 -6 12 -53 16
-103 4 -51 11 -93 15 -93 4 0 10 -21 13 -46 2 -25 9 -50 13 -54 10 -10 104 18
104 30 0 5 14 11 30 15 17 4 30 11 30 16 0 5 11 11 25 15 14 3 25 9 25 13 0 9
49 29 90 37 19 4 46 13 60 21 14 7 49 13 79 13 l53 0 -7 -36 c-3 -20 -10 -44
-14 -53 -11 -22 -32 -81 -38 -108 -3 -13 -9 -23 -13 -23 -5 0 -11 -13 -15 -30
-4 -16 -11 -30 -16 -30 -5 0 -9 -6 -9 -12 0 -7 -7 -26 -15 -41 -8 -15 -17 -43
-21 -63 -3 -19 -10 -37 -15 -40 -5 -3 -9 -16 -9 -28 0 -13 -7 -37 -15 -52 -8
-16 -15 -41 -15 -56 0 -16 -4 -28 -10 -28 -5 0 -10 -15 -10 -32 0 -18 -5 -51
-11 -73 -6 -22 -16 -81 -23 -131 -7 -50 -16 -96 -20 -102 -10 -16 -14 -404 -6
-519 9 -116 26 -216 46 -260 8 -17 14 -36 14 -42 0 -6 5 -11 10 -11 6 0 10 -8
10 -17 0 -9 13 -44 29 -77 16 -34 39 -81 51 -106 25 -52 40 -79 58 -98 6 -7
12 -17 12 -20 0 -4 12 -22 28 -39 15 -17 38 -45 52 -63 32 -41 37 -46 99 -100
29 -25 65 -56 81 -70 16 -14 38 -32 50 -40 13 -8 28 -21 36 -28 7 -6 15 -12
18 -12 3 0 25 -13 49 -30 25 -16 52 -30 60 -30 9 0 18 -4 21 -9 3 -5 22 -12
41 -15 19 -4 35 -11 35 -15 0 -5 26 -12 58 -16 31 -4 60 -11 63 -16 8 -14 134
-18 647 -19 259 -1 474 -6 477 -10 3 -5 292 -9 643 -11 790 -2 744 -1 749 -16
3 -9 -8 -13 -36 -13 -41 0 -41 0 -41 -39 0 -22 -5 -42 -12 -44 -8 -4 -7 -6 4
-6 9 -1 23 6 32 14 17 17 36 20 36 5 0 -15 19 -12 36 4 16 17 19 46 4 46 -5 0
-10 11 -10 25 0 14 -4 25 -10 25 -5 0 -10 4 -10 10 0 5 22 9 49 9 43 -1 53 3
90 37 37 35 41 44 41 86 0 26 -4 50 -10 53 -5 3 -10 27 -10 53 0 26 -6 58 -13
72 -24 45 -34 64 -53 105 -10 21 -31 52 -46 67 -15 15 -32 37 -38 48 -6 11
-17 20 -25 20 -7 0 -15 6 -18 13 -3 9 -35 12 -118 11 -63 0 -106 2 -96 4 23 5
22 23 -3 29 -25 7 -25 17 0 68 11 22 19 52 20 68 0 15 5 27 10 27 12 0 13 150
1 205 -5 22 -12 74 -15 116 -7 88 -1 98 64 106 22 3 40 9 40 13 0 4 21 10 46
13 26 2 49 9 53 14 3 5 26 20 51 32 25 13 65 34 90 47 25 13 52 24 61 24 9 0
19 7 23 15 3 8 12 15 21 15 8 0 15 4 15 8 0 5 20 18 44 31 25 12 60 38 79 59
19 20 60 64 91 96 31 33 56 64 56 68 0 4 7 8 15 8 8 0 15 -4 15 -8 0 -10 70
-42 91 -42 8 0 28 -7 44 -16 35 -18 247 -21 253 -4 2 6 8 7 13 4 6 -3 23 -1
39 6 33 14 150 121 150 138 0 7 4 12 9 12 18 0 38 197 22 213 -6 6 -11 21 -11
33 0 13 -4 25 -9 28 -5 3 -12 17 -15 31 -10 38 -56 99 -101 131 -45 33 -104
64 -121 64 -6 0 15 27 47 61 58 61 89 112 89 146 0 10 5 24 11 30 17 17 -12
235 -31 241 -6 2 -10 11 -10 20 0 10 -11 39 -25 66 -14 27 -25 54 -25 59 0 5
-23 46 -50 91 -68 109 -70 113 -107 155 -17 20 -51 60 -75 90 -24 29 -56 60
-73 70 -16 9 -32 18 -35 22 -3 3 -23 16 -45 29 -22 13 -42 27 -45 30 -3 4 -30
16 -60 28 -30 11 -74 31 -98 43 -43 23 -44 24 -37 66 5 37 1 54 -27 111 -18
37 -36 69 -40 70 -5 2 -8 8 -8 14 0 15 -42 100 -57 116 -7 7 -13 18 -13 24 0
6 -8 17 -18 24 -9 7 -18 16 -18 21 -4 25 -17 53 -25 53 -5 0 -9 8 -9 18 -1 9
-9 35 -20 57 -11 22 -19 46 -20 53 0 6 -4 12 -9 12 -5 0 -12 11 -15 25 -4 14
-11 25 -16 25 -6 0 -10 14 -10 30 0 17 -5 30 -10 30 -6 0 -10 3 -9 8 3 19 -15
52 -28 52 -12 0 -14 -8 -9 -40 5 -31 3 -42 -9 -46 -8 -3 -12 -10 -9 -15 3 -5
0 -9 -5 -9 -6 0 -11 -15 -11 -34 0 -18 -7 -47 -15 -62 -8 -16 -15 -39 -15 -51
0 -12 -4 -24 -9 -27 -5 -4 -12 -24 -16 -46 -4 -22 -10 -42 -15 -45 -4 -3 -11
-22 -14 -42 -8 -44 -28 -93 -38 -93 -3 0 -9 -22 -13 -50 -4 -27 -11 -50 -16
-50 -5 0 -9 -8 -9 -17 0 -15 -2 -15 -9 -4 -5 8 -7 20 -4 28 3 7 -1 13 -8 13
-7 0 -9 -3 -6 -7 4 -3 -3 -20 -16 -37 -13 -17 -36 -62 -52 -101 -16 -38 -36
-76 -43 -84 -8 -8 -11 -24 -7 -42 5 -21 2 -31 -8 -35 -8 -3 -18 -16 -21 -29
-3 -13 -15 -27 -26 -30 -11 -4 -18 -9 -16 -13 2 -4 -9 -20 -25 -35 -16 -16
-29 -23 -29 -17 0 6 6 13 14 16 8 3 14 14 13 25 -2 25 -17 25 -17 0 0 -10 -7
-24 -15 -31 -8 -7 -13 -16 -10 -20 2 -3 -9 -6 -25 -5 -16 1 -27 -2 -24 -7 3
-5 0 -15 -6 -23 -6 -8 -9 -19 -5 -25 7 -12 -126 -150 -146 -150 -7 0 -10 -3
-6 -6 8 -9 -14 -30 -41 -38 -12 -4 -22 -11 -22 -16 0 -5 -9 -12 -20 -15 -11
-3 -20 -13 -20 -21 0 -8 -4 -14 -8 -14 -8 0 -50 -34 -100 -80 -12 -12 -27 -18
-34 -14 -7 5 -8 3 -3 -6 6 -10 1 -11 -21 -6 -21 5 -25 4 -14 -4 13 -9 13 -11
0 -20 -19 -12 -31 -12 -50 0 -13 9 -13 12 3 21 9 5 17 14 17 20 0 5 -10 1 -22
-11 -23 -21 -85 -43 -99 -34 -9 5 -50 -19 -87 -51 -13 -11 -40 -25 -60 -31
-25 -7 -38 -17 -40 -31 -3 -18 -13 -22 -88 -28 -46 -4 -86 -11 -90 -16 -3 -5
-18 -9 -34 -9 -24 0 -27 3 -22 23 3 12 10 25 15 28 5 4 12 28 15 55 2 27 10
52 16 56 7 5 11 74 11 215 0 114 1 191 3 171 2 -21 7 -38 11 -38 12 0 9 94 -3
102 -11 7 -12 11 -15 43 0 8 -5 15 -11 15 -5 0 -7 -15 -5 -32 4 -29 4 -30 -4
-8 -5 14 -9 42 -10 62 -1 20 -7 38 -13 41 -10 4 -10 7 0 18 14 15 17 79 3 79
-5 0 -7 -9 -4 -19 3 -11 0 -28 -6 -38 -9 -15 -11 -11 -12 22 0 22 0 55 1 73 1
17 -2 32 -7 32 -4 0 -7 -24 -6 -52 1 -43 0 -48 -8 -29 -5 14 -8 30 -5 38 7 16
-11 27 -18 11 -3 -7 -4 0 -1 15 3 16 1 35 -6 43 -6 8 -8 14 -5 14 12 0 -17 25
-36 33 -10 3 -18 11 -18 17 0 6 -4 9 -9 6 -11 -7 -22 20 -15 38 3 8 1 17 -5
21 -6 3 -11 1 -11 -6 0 -7 -3 -10 -6 -7 -9 9 27 58 42 58 8 0 14 5 14 10 0 6
-7 10 -15 10 -8 0 -15 -5 -15 -11 0 -5 -4 -8 -9 -5 -5 4 -12 0 -14 -6 -4 -10
-6 -10 -6 -1 -1 17 31 53 41 47 4 -3 8 1 8 8 0 25 -90 88 -126 88 -11 0 -14 6
-9 20 5 15 2 20 -12 20 -15 0 -16 -2 -3 -10 12 -8 9 -10 -12 -10 -32 0 -37
-20 -12 -44 8 -9 12 -16 8 -16 -13 0 -73 68 -66 75 4 4 0 5 -8 3 -10 -2 -14 4
-13 17 1 11 0 14 -3 8 -8 -18 -27 -16 -20 2 8 21 -22 47 -46 39 -15 -4 -18 -3
-13 6 5 9 4 11 -3 6 -7 -4 -29 5 -49 19 -21 14 -46 25 -56 25 -10 0 -16 4 -13
9 3 5 -10 12 -29 15 -19 4 -35 11 -35 16 0 4 -18 11 -41 15 -26 5 -39 11 -36
19 4 9 -3 12 -21 9 -17 -3 -22 -1 -15 4 15 10 0 38 -15 29 -6 -3 -15 2 -21 11
-9 15 -12 15 -20 4 -7 -11 -13 -9 -31 9 -12 12 -35 23 -51 25 -31 4 -77 27
-49 24 36 -3 42 1 25 17 -9 9 -15 23 -13 32 4 22 92 26 124 5 22 -14 24 -14
24 1 0 9 5 16 10 16 6 0 10 -6 10 -14 0 -16 30 -26 78 -26 39 0 45 26 7 36
-14 3 -25 10 -25 15 0 5 -7 9 -15 9 -8 0 -15 5 -15 10 0 6 -18 10 -40 10 -22
0 -40 -4 -40 -10 0 -5 5 -10 10 -10 6 0 10 -4 10 -10 0 -15 -19 -12 -36 5 -11
11 -12 15 -3 15 32 0 -5 13 -46 16 -25 2 -54 8 -64 14 -26 13 -174 13 -188 -1z
m2685 -471 c6 -13 21 -45 33 -73 11 -27 31 -63 43 -80 45 -61 56 -108 56 -239
l0 -124 33 -6 c17 -4 69 -11 113 -16 51 -5 96 -17 120 -31 59 -33 138 -104
198 -177 153 -189 144 -176 204 -302 63 -133 65 -138 60 -219 -3 -43 -10 -77
-17 -79 -6 -2 -11 -9 -11 -16 0 -23 -125 -133 -185 -164 -99 -50 -176 -64
-363 -66 -148 -2 -170 -5 -190 -21 -33 -28 -30 -87 4 -114 15 -12 41 -21 58
-21 17 0 37 -4 44 -9 8 -5 40 -2 75 6 116 27 162 32 328 32 203 1 246 -10 321
-80 l51 -48 -5 -68 c-9 -129 -43 -160 -162 -148 -70 6 -81 10 -127 48 -78 64
-115 80 -171 75 -55 -6 -109 -40 -172 -107 -188 -205 -268 -266 -436 -329
-168 -64 -259 -70 -460 -32 -29 6 -55 9 -56 7 -3 -2 72 -103 112 -150 24 -29
63 -118 73 -167 5 -25 14 -63 20 -84 5 -22 8 -62 5 -90 -7 -71 -35 -195 -45
-202 -5 -3 -9 -12 -9 -19 0 -30 -57 -133 -112 -204 -33 -41 -57 -81 -56 -90 2
-8 17 -18 33 -23 17 -5 39 -13 50 -18 75 -31 97 -35 180 -34 62 1 110 8 154
23 35 11 76 21 89 21 26 0 92 -44 92 -61 0 -6 12 -35 27 -65 l26 -54 -24 -26
-24 -26 -615 5 c-661 5 -1523 17 -1605 22 -27 2 -58 4 -67 4 -10 1 -18 6 -18
11 0 6 -9 21 -21 33 -26 27 -59 101 -59 131 0 12 -4 26 -9 31 -16 16 -35 239
-36 405 0 148 13 286 34 367 5 21 17 70 26 108 17 69 72 231 85 250 4 6 29 51
55 100 27 50 52 92 57 93 4 2 8 8 8 14 0 5 8 20 18 33 9 12 23 31 30 41 58 85
119 167 187 252 44 55 112 145 150 201 164 236 149 222 270 241 176 28 245 41
295 56 30 9 75 21 100 28 85 22 259 125 340 201 30 28 82 74 115 101 104 86
115 96 244 234 183 197 279 349 346 550 11 30 25 66 32 80 7 14 13 30 13 36 0
14 24 64 31 64 3 0 11 -10 17 -22z"/>
<path d="M3955 3312 c-38 -24 -50 -39 -64 -84 -11 -32 -10 -43 7 -81 17 -39
27 -47 73 -65 77 -28 175 -35 195 -14 35 35 -6 210 -57 246 -32 22 -116 21
-154 -2z"/>
<path d="M1920 4300 c-9 -6 -10 -10 -3 -10 6 0 14 -13 18 -30 4 -16 10 -30 13
-31 73 -7 94 -24 98 -77 1 -21 2 -45 3 -54 1 -10 5 -18 11 -18 17 0 50 -34 50
-51 0 -10 10 -19 24 -21 17 -4 23 -1 19 9 -3 7 -9 13 -14 13 -5 0 -9 7 -9 15
0 8 5 15 10 15 6 0 10 11 10 25 0 14 -4 25 -10 25 -5 0 -10 9 -10 20 0 11 -4
20 -9 20 -5 0 -13 9 -16 20 -3 11 -12 20 -19 20 -18 0 -62 43 -71 68 -3 13
-15 22 -26 22 -11 0 -22 7 -25 15 -7 17 -22 19 -44 5z"/>
<path d="M5016 3568 c4 -24 10 -45 15 -48 4 -3 10 -42 14 -88 4 -45 11 -82 15
-82 4 0 10 -21 13 -46 2 -26 9 -49 14 -53 6 -3 15 -19 21 -36 9 -25 11 -12 11
75 1 109 -14 231 -29 240 -5 3 -10 21 -12 40 -3 31 -6 35 -36 38 l-32 3 6 -43z"/>
<path d="M4060 230 c0 -5 -11 -12 -25 -16 -14 -3 -25 -10 -25 -14 0 -4 -18
-10 -39 -14 -27 -4 -42 -12 -46 -26 -3 -11 -11 -20 -16 -20 -5 0 -9 -7 -9 -15
0 -8 -7 -15 -15 -15 -9 0 -18 -7 -21 -15 -4 -9 -26 -17 -55 -21 -82 -11 -55
-24 51 -24 82 0 100 3 100 15 0 8 5 15 10 15 6 0 10 -7 10 -15 0 -22 79 -20
96 3 13 16 14 16 8 0 -5 -16 1 -18 55 -18 l61 0 -1 48 c0 35 -3 42 -9 27 -9
-21 -14 -7 -10 29 1 10 -1 34 -5 52 -6 34 -6 34 -60 34 -30 0 -55 -4 -55 -10z"/>
<path d="M840 119 c0 -6 -7 -8 -17 -4 -13 4 -12 1 5 -15 12 -11 22 -27 22 -35
0 -12 15 -15 65 -15 37 0 65 4 65 10 0 6 -4 10 -10 10 -5 0 -10 7 -10 15 0 23
15 18 30 -10 12 -22 20 -25 72 -25 32 0 58 4 58 10 0 6 -6 10 -14 10 -8 0 -22
7 -30 15 -9 9 -32 17 -53 19 -20 2 -39 9 -41 15 -5 15 -142 15 -142 0z"/>
</g>
</svg>
